<?xml version="1.0" encoding="utf-8"?>
<!-- Generator: Adobe Illustrator 25.2.0, SVG Export Plug-In . SVG Version: 6.00 Build 0)  -->
<svg version="1.1" id="Layer_1" xmlns="http://www.w3.org/2000/svg" xmlns:xlink="http://www.w3.org/1999/xlink" x="0px" y="0px"
	 viewBox="0 0 512 512" style="enable-background:new 0 0 512 512;" xml:space="preserve">
<style type="text/css">
	.st0{fill:url(#SVGID_1_);}
	.st1{fill:url(#SVGID_2_);}
	.st2{fill:url(#SVGID_3_);}
	.st3{fill:url(#SVGID_4_);stroke:url(#SVGID_5_);stroke-miterlimit:10;}
</style>
<g id="surface27918501">
	
		<linearGradient id="SVGID_1_" gradientUnits="userSpaceOnUse" x1="-415.6428" y1="657.2715" x2="-415.6428" y2="612.0839" gradientTransform="matrix(2.9767 0 0 -2.9767 1389.651 2089.4648)">
		<stop  offset="0" style="stop-color:#8AB4FF"/>
		<stop  offset="1" style="stop-color:#E492FF"/>
	</linearGradient>
	<path class="st0" d="M174.1,125.4L71.4,226.1c-19,18.7-18.8,49.4,0.5,67.7l46.1,43.8l129.5-134.1L174.1,125.4z"/>
	
		<linearGradient id="SVGID_2_" gradientUnits="userSpaceOnUse" x1="-351.4014" y1="657.2715" x2="-351.4014" y2="612.0839" gradientTransform="matrix(2.9767 0 0 -2.9767 1389.651 2089.4648)">
		<stop  offset="0" style="stop-color:#8AB4FF"/>
		<stop  offset="1" style="stop-color:#E492FF"/>
	</linearGradient>
	<path class="st1" d="M339.2,127.7l-74.8,75.9l80.9,82.2l77.6-77.6L339.2,127.7z"/>
	
		<linearGradient id="SVGID_3_" gradientUnits="userSpaceOnUse" x1="-380.837" y1="688.949" x2="-380.837" y2="546.7292" gradientTransform="matrix(2.9767 0 0 -2.9767 1389.651 2089.4648)">
		<stop  offset="0" style="stop-color:#1A6DFF"/>
		<stop  offset="1" style="stop-color:#C822FF"/>
	</linearGradient>
	<path class="st2" d="M464,256.4c-0.1,14.7-5.9,28.6-16.3,39l-74.6,74.6c-2.9-4.5-6.8-8.3-11.4-11.2l18.6-18.6L256,215.8
		L131.8,340.1l18,18c-4.7,2.7-8.7,6.4-11.8,10.8l-73.6-73.6C53.8,284.8,48,270.9,48,256c0-14.8,5.8-28.8,16.3-39.3L216.7,64.3
		C227.2,53.8,241.1,48,256,48c14.8,0,28.8,5.8,39.3,16.3l152.4,152.4C458.3,227.3,464.1,241.4,464,256.4z M340.1,131.7l-72.8,72.8
		l80.5,80.5l-4.9-4.9l73.2-72.3L340.1,131.7z M183.2,120.4l72.8,72.8l72.8-72.8L284,75.6c-7.5-7.5-17.4-11.6-28-11.6
		c-10.6,0-20.5,4.1-28,11.6L183.2,120.4z M75.6,284l44.8,44.8l124.3-124.3l-72.8-72.8L75.6,228c-7.5,7.5-11.6,17.4-11.6,28
		S68.1,276.5,75.6,284z M448,256.3c0.1-10.7-4-20.7-11.6-28.3l-8.9-8.9l-73.2,72.3l37.4,37.3l44.8-44.8
		C443.8,276.6,447.9,266.7,448,256.3z"/>
</g>
<linearGradient id="SVGID_4_" gradientUnits="userSpaceOnUse" x1="255.178" y1="503.0703" x2="255.178" y2="287.1006">
	<stop  offset="0" style="stop-color:#1A6DFF"/>
	<stop  offset="1" style="stop-color:#C822FF"/>
</linearGradient>
<linearGradient id="SVGID_5_" gradientUnits="userSpaceOnUse" x1="255.178" y1="286.6006" x2="255.178" y2="503.5703">
	<stop  offset="0" style="stop-color:#1A6DFF"/>
	<stop  offset="1" style="stop-color:#C822FF"/>
</linearGradient>
<path class="st3" d="M363,388.8c-0.6-9.8-7.8-17.8-17.4-19.3c-2.2-0.4-4.8-0.8-7.2-1.2l-3-0.5c-1.1-3.3-2.5-6.6-4.1-10.1
	c1.9-2.6,4.1-5.7,6-8.3c5.8-8,5.2-18.8-1.4-26.2c-2.8-3.1-5.8-6.1-8.9-8.9c-7.4-6.5-18.1-7-26-1.3l-8.4,6c-3.1-1.6-6.5-3-10-4.2
	c-0.4-2.2-0.8-4.7-1.2-7.1l-0.5-3c-1.6-9.7-9.6-16.9-19.5-17.5c-4.2-0.2-8.5-0.2-12.6,0c-9.8,0.7-17.7,7.9-19.3,17.5l-1.7,10.1
	c-3.3,1.1-6.7,2.5-10.1,4.2c-1.6-1.1-3.3-2.3-4.9-3.5l-3.3-2.4c-8-5.8-18.8-5.2-26.2,1.4c-2.9,2.6-5.9,5.6-8.9,8.9
	c-6.5,7.4-7,18.1-1.3,26l6,8.3c-1.6,3.2-3,6.6-4.2,10c-2.8,0.5-5.9,1-8.8,1.4l-1.2,0.2c-9.8,1.6-17,9.6-17.6,19.5
	c-0.2,4.2-0.2,8.4,0,12.6c0.7,9.8,7.9,17.7,17.5,19.3l10.1,1.7c1.1,3.3,2.5,6.7,4.1,10.1c-1,1.5-2.2,3.1-3.3,4.6l-2.6,3.6
	c-5.8,8-5.2,18.8,1.4,26.2c2.7,3,5.7,6,8.9,8.8c7.4,6.5,18.1,7,26,1.3c2.6-1.9,5.7-4.1,8.4-6c3.2,1.6,6.6,3,10,4.2
	c0.5,3,1.1,6.5,1.6,10.1c1.6,9.7,9.6,17,19.5,17.6c2,0.1,4,0.2,6,0.2c2.2,0,4.5,0,6.6-0.2c9.8-0.6,17.8-7.8,19.4-17.5l1.7-10.1
	c3.4-1.1,6.7-2.5,10.1-4.1c2.6,1.8,5.6,4,8.2,5.9c8,5.8,18.7,5.2,26.2-1.4c3.1-2.8,6.1-5.8,8.8-8.9c6.5-7.4,7.1-18.1,1.4-26
	c-1.9-2.6-4.1-5.7-6-8.4c1.6-3.2,3-6.6,4.2-10c3.1-0.5,6.8-1.2,10.1-1.7c9.7-1.6,16.9-9.6,17.5-19.4v0
	C363.2,397.3,363.2,393.1,363,388.8z M255.2,439.1c-24.3,0-44-19.7-44-44s19.7-44,44-44s44,19.7,44,44S279.5,439.1,255.2,439.1z"/>
</svg>
