<?xml version="1.0" encoding="UTF-8"?>
<svg xmlns="http://www.w3.org/2000/svg" xmlns:xlink="http://www.w3.org/1999/xlink" viewBox="0 0 512 512" width="512px" height="512px">
<defs>
<linearGradient id="linear0" gradientUnits="userSpaceOnUse" x1="51.191502" y1="44.658192" x2="51.191502" y2="89.84581" gradientTransform="matrix(2.976744,0,0,2.976744,0,0)">
<stop offset="0" style="stop-color:rgb(54.11765%,70.588237%,100%);stop-opacity:1;"/>
<stop offset="1" style="stop-color:rgb(89.411765%,57.254905%,100%);stop-opacity:1;"/>
</linearGradient>
<linearGradient id="linear1" gradientUnits="userSpaceOnUse" x1="115.433502" y1="44.658192" x2="115.433502" y2="89.84581" gradientTransform="matrix(2.976744,0,0,2.976744,0,0)">
<stop offset="0" style="stop-color:rgb(54.11765%,70.588237%,100%);stop-opacity:1;"/>
<stop offset="1" style="stop-color:rgb(89.411765%,57.254905%,100%);stop-opacity:1;"/>
</linearGradient>
<linearGradient id="linear2" gradientUnits="userSpaceOnUse" x1="86" y1="12.98063" x2="86" y2="155.200439" gradientTransform="matrix(2.976744,0,0,2.976744,0,0)">
<stop offset="0" style="stop-color:rgb(10.196079%,42.745098%,100%);stop-opacity:1;"/>
<stop offset="1" style="stop-color:rgb(78.431374%,13.333334%,100%);stop-opacity:1;"/>
</linearGradient>
<linearGradient id="linear3" gradientUnits="userSpaceOnUse" x1="85.722763" y1="96.448174" x2="85.722763" y2="169" gradientTransform="matrix(2.976744,0,0,2.976744,0,0)">
<stop offset="0" style="stop-color:rgb(10.196079%,42.745098%,100%);stop-opacity:1;"/>
<stop offset="1" style="stop-color:rgb(78.431374%,13.333334%,100%);stop-opacity:1;"/>
</linearGradient>
<linearGradient id="linear4" gradientUnits="userSpaceOnUse" x1="85.722221" y1="96.446861" x2="85.722221" y2="168.340836" gradientTransform="matrix(2.976744,0,0,2.976744,0,0)">
<stop offset="0" style="stop-color:rgb(10.196079%,42.745098%,100%);stop-opacity:1;"/>
<stop offset="1" style="stop-color:rgb(78.431374%,13.333334%,100%);stop-opacity:1;"/>
</linearGradient>
</defs>
<g id="surface27918501">
<path style=" stroke:none;fill-rule:nonzero;fill:url(#linear0);" d="M 174.097656 125.414062 L 71.398438 226.128906 C 52.375 244.785156 52.609375 275.488281 71.910156 293.847656 L 117.984375 337.679688 L 247.496094 203.609375 Z M 174.097656 125.414062 "/>
<path style=" stroke:none;fill-rule:nonzero;fill:url(#linear1);" d="M 339.152344 127.742188 L 264.34375 203.609375 L 345.28125 285.761719 L 422.894531 208.167969 Z M 339.152344 127.742188 "/>
<path style=" stroke:none;fill-rule:nonzero;fill:url(#linear2);" d="M 463.992188 256.351562 C 463.902344 271.070312 458.128906 284.910156 447.710938 295.320312 L 373.117188 369.910156 C 370.203125 365.40625 366.308594 361.570312 361.691406 358.707031 L 380.328125 340.070312 L 256.039062 215.800781 L 131.753906 340.144531 L 149.707031 358.101562 C 145.003906 360.808594 140.984375 364.519531 137.917969 368.949219 L 64.289062 295.3125 C 53.792969 284.824219 48 270.855469 48 256 C 48 241.152344 53.785156 227.183594 64.289062 216.6875 L 216.6875 64.28125 C 227.175781 53.785156 241.144531 48 256 48 C 270.847656 48 284.816406 53.785156 295.328125 64.28125 L 447.71875 216.679688 C 458.320312 227.28125 464.097656 241.367188 463.992188 256.351562 Z M 340.113281 131.695312 L 267.351562 204.488281 L 347.886719 285.015625 L 343.015625 280.078125 L 416.214844 207.800781 Z M 183.214844 120.367188 L 256.03125 193.167969 L 328.800781 120.375 L 284.015625 75.59375 C 276.527344 68.121094 266.574219 64 256 64 C 245.417969 64 235.480469 68.121094 228 75.59375 Z M 75.601562 283.992188 L 120.441406 328.832031 L 244.71875 204.488281 L 171.902344 131.6875 L 75.601562 228 C 68.121094 235.488281 64 245.425781 64 256 C 64 266.574219 68.121094 276.519531 75.601562 283.992188 Z M 448 256.257812 C 448.078125 245.574219 443.960938 235.542969 436.414062 227.992188 L 427.527344 219.105469 L 354.296875 291.414062 L 391.648438 328.761719 L 436.398438 284.007812 C 443.816406 276.59375 447.929688 266.734375 448 256.257812 Z M 448 256.257812 "/>
<path style=" stroke:none;fill-rule:nonzero;fill:url(#linear3);" d="M 254.957031 503.070312 C 252.949219 503.070312 250.941406 503.023438 248.933594 502.902344 C 239.046875 502.316406 231.039062 495.085938 229.472656 485.34375 C 228.898438 481.777344 228.328125 478.257812 227.832031 475.289062 C 224.386719 474.113281 221.027344 472.722656 217.800781 471.113281 C 215.171875 473.027344 212.082031 475.257812 209.441406 477.128906 C 201.53125 482.816406 190.8125 482.289062 183.429688 475.785156 C 180.253906 472.953125 177.277344 469.984375 174.550781 466.953125 C 167.953125 459.515625 167.410156 448.757812 173.199219 440.742188 L 175.800781 437.125 C 176.941406 435.558594 178.09375 433.957031 179.136719 432.496094 C 177.496094 429.113281 176.121094 425.761719 175.007812 422.441406 L 164.90625 420.761719 C 155.25 419.207031 148.035156 411.273438 147.378906 401.484375 C 147.132812 397.308594 147.132812 393.085938 147.371094 388.867188 C 147.972656 378.949219 155.195312 370.949219 164.945312 369.382812 L 166.183594 369.183594 C 169.046875 368.71875 172.222656 368.207031 174.984375 367.734375 C 176.152344 364.289062 177.550781 360.945312 179.160156 357.710938 L 173.175781 349.378906 C 167.472656 341.402344 167.992188 330.691406 174.449219 323.339844 C 177.429688 320.054688 180.390625 317.101562 183.328125 314.460938 C 190.75 307.886719 201.5 307.335938 209.515625 313.09375 L 212.84375 315.484375 C 214.523438 316.695312 216.234375 317.925781 217.785156 319.03125 C 221.195312 317.367188 224.5625 315.972656 227.847656 314.871094 L 229.511719 304.777344 C 231.0625 295.136719 239 287.9375 248.789062 287.273438 C 252.949219 287.042969 257.164062 287.042969 261.40625 287.273438 C 271.265625 287.875 279.265625 295.082031 280.882812 304.792969 L 281.371094 307.75 C 281.753906 310.144531 282.160156 312.644531 282.539062 314.886719 C 286.082031 316.085938 289.433594 317.484375 292.542969 319.054688 L 300.917969 313.0625 C 308.75 307.359375 319.460938 307.863281 326.898438 314.335938 C 330.050781 317.164062 333.019531 320.132812 335.820312 323.246094 C 342.386719 330.644531 342.9375 341.394531 337.1875 349.417969 C 335.308594 352.007812 333.089844 355.074219 331.234375 357.6875 C 332.914062 361.128906 334.300781 364.488281 335.371094 367.742188 L 338.355469 368.238281 C 340.785156 368.632812 343.3125 369.046875 345.554688 369.4375 C 355.152344 370.96875 362.359375 378.925781 362.960938 388.75 C 363.214844 393.074219 363.230469 397.300781 363 401.316406 L 363 401.347656 C 362.398438 411.179688 355.199219 419.167969 345.480469 420.785156 C 342.21875 421.28125 338.53125 421.90625 335.386719 422.441406 C 334.210938 425.878906 332.8125 429.238281 331.210938 432.464844 C 333.113281 435.085938 335.355469 438.183594 337.21875 440.828125 C 342.921875 448.757812 342.378906 459.46875 335.859375 466.820312 C 333.097656 469.953125 330.125 472.953125 327.035156 475.722656 C 319.558594 482.28125 308.804688 482.847656 300.832031 477.074219 C 298.214844 475.167969 295.183594 472.976562 292.585938 471.136719 C 289.226562 472.777344 285.882812 474.152344 282.53125 475.273438 L 280.867188 485.367188 C 279.28125 495.070312 271.332031 502.269531 261.515625 502.871094 C 259.429688 503.023438 257.195312 503.070312 254.957031 503.070312 Z M 217.5625 454.707031 C 219.691406 454.707031 221.824219 455.203125 223.800781 456.21875 C 227.136719 457.949219 230.609375 459.386719 234.152344 460.53125 C 239.007812 462.042969 242.566406 466.179688 243.382812 471.296875 C 243.925781 474.472656 244.589844 478.609375 245.167969 482.160156 C 245.644531 485.128906 247.503906 486.792969 249.878906 486.9375 C 253.40625 487.144531 256.964844 487.152344 260.4375 486.902344 C 262.835938 486.75 264.691406 485.070312 265.058594 482.785156 L 266.914062 471.441406 C 267.773438 466.15625 271.339844 462.035156 276.25 460.484375 C 279.753906 459.386719 283.234375 457.972656 286.609375 456.242188 C 291.007812 453.859375 296.496094 454.253906 300.75 457.332031 C 303.550781 459.292969 307.183594 461.914062 310.222656 464.140625 C 312.070312 465.464844 314.621094 465.339844 316.40625 463.769531 C 318.972656 461.46875 321.507812 458.914062 323.875 456.234375 C 325.410156 454.5 325.539062 451.996094 324.203125 450.125 C 322.035156 447.0625 319.429688 443.46875 317.375 440.636719 C 314.375 436.460938 313.972656 431.054688 316.308594 426.480469 C 318.046875 423.136719 319.492188 419.664062 320.628906 416.121094 C 322.164062 411.257812 326.308594 407.699219 331.433594 406.890625 C 334.828125 406.304688 339.257812 405.554688 342.976562 404.996094 C 345.210938 404.617188 346.890625 402.769531 347.042969 400.402344 C 347.234375 397.003906 347.21875 393.402344 347 389.707031 C 346.855469 387.398438 345.210938 385.582031 342.90625 385.214844 C 340.601562 384.804688 338.144531 384.40625 335.785156 384.027344 L 332.125 383.429688 C 326.378906 382.535156 322.253906 379.015625 320.621094 374.152344 C 319.574219 370.671875 318.15625 367.222656 316.339844 363.65625 C 314.003906 359.152344 314.40625 353.714844 317.429688 349.53125 C 319.390625 346.730469 322.042969 343.058594 324.210938 340.066406 C 325.578125 338.164062 325.460938 335.660156 323.890625 333.898438 C 321.507812 331.242188 318.949219 328.683594 316.308594 326.316406 C 314.597656 324.820312 312.132812 324.707031 310.253906 326.0625 L 300.679688 332.90625 C 296.648438 335.890625 291.191406 336.339844 286.585938 333.972656 C 283.378906 332.269531 279.929688 330.835938 276.226562 329.652344 C 271.339844 328.109375 267.789062 323.957031 266.980469 318.828125 C 266.554688 316.359375 266.042969 313.253906 265.570312 310.320312 L 265.101562 307.398438 C 264.707031 305.070312 262.851562 303.390625 260.46875 303.238281 C 256.886719 303.039062 253.285156 303.039062 249.789062 303.238281 C 247.542969 303.398438 245.671875 305.078125 245.300781 307.34375 L 243.519531 318.164062 C 242.613281 323.964844 239.054688 328.101562 234.121094 329.667969 C 230.746094 330.714844 227.265625 332.15625 223.746094 333.949219 C 219.21875 336.285156 213.792969 335.859375 209.609375 332.851562 C 207.828125 331.589844 205.628906 330.003906 203.484375 328.460938 L 200.203125 326.101562 C 198.261719 324.683594 195.757812 324.828125 193.980469 326.386719 C 191.492188 328.636719 188.917969 331.210938 186.382812 334.003906 C 184.941406 335.636719 184.828125 338.179688 186.191406 340.074219 L 193.003906 349.570312 C 195.980469 353.679688 196.398438 359.113281 194.070312 363.6875 C 192.308594 367.0625 190.859375 370.519531 189.734375 374.023438 C 188.230469 378.902344 184.070312 382.492188 178.902344 383.292969 C 175.941406 383.796875 172.128906 384.421875 168.726562 384.972656 L 167.480469 385.171875 C 165.136719 385.550781 163.480469 387.40625 163.328125 389.796875 C 163.128906 393.371094 163.128906 396.972656 163.328125 400.46875 C 163.480469 402.753906 165.144531 404.59375 167.464844 404.960938 L 178.238281 406.746094 C 183.980469 407.640625 188.109375 411.160156 189.742188 416.03125 C 190.859375 419.59375 192.285156 423.078125 194.035156 426.550781 C 196.371094 431.039062 195.964844 436.476562 192.933594 440.667969 C 191.75 442.367188 190.246094 444.445312 188.765625 446.5 L 186.191406 450.070312 C 184.773438 452.027344 184.902344 454.523438 186.476562 456.300781 C 188.789062 458.859375 191.339844 461.410156 194.042969 463.8125 C 195.773438 465.324219 198.246094 465.464844 200.15625 464.105469 C 203.210938 461.9375 206.8125 459.324219 209.644531 457.277344 C 212.003906 455.570312 214.769531 454.707031 217.5625 454.707031 Z M 229.289062 475.777344 C 229.296875 475.777344 229.3125 475.785156 229.320312 475.785156 C 229.3125 475.785156 229.296875 475.777344 229.289062 475.777344 Z M 227.601562 473.90625 C 227.601562 473.921875 227.609375 473.929688 227.609375 473.945312 C 227.609375 473.929688 227.601562 473.921875 227.601562 473.90625 Z M 294.046875 470.410156 C 294.015625 470.425781 293.976562 470.449219 293.9375 470.464844 C 293.976562 470.449219 294.007812 470.425781 294.046875 470.410156 Z M 291.472656 470.363281 C 291.480469 470.378906 291.496094 470.386719 291.511719 470.394531 C 291.496094 470.386719 291.480469 470.371094 291.472656 470.363281 Z M 179.78125 433.796875 C 179.789062 433.816406 179.800781 433.839844 179.808594 433.855469 C 179.800781 433.839844 179.789062 433.816406 179.78125 433.796875 Z M 179.910156 431.375 C 179.902344 431.390625 179.886719 431.40625 179.878906 431.421875 C 179.886719 431.40625 179.894531 431.390625 179.910156 431.375 Z M 334.082031 422.664062 C 334.066406 422.664062 334.058594 422.671875 334.042969 422.671875 C 334.058594 422.671875 334.066406 422.671875 334.082031 422.664062 Z M 335.867188 420.984375 C 335.867188 420.992188 335.867188 420.992188 335.859375 421 C 335.859375 420.992188 335.859375 420.992188 335.867188 420.984375 Z M 174.496094 369.167969 C 174.496094 369.191406 174.488281 369.207031 174.480469 369.222656 C 174.488281 369.207031 174.496094 369.191406 174.496094 369.167969 Z M 176.328125 367.511719 C 176.3125 367.511719 176.296875 367.519531 176.269531 367.519531 C 176.289062 367.519531 176.304688 367.511719 176.328125 367.511719 Z M 180.007812 358.886719 C 180.007812 358.894531 180.007812 358.894531 180.007812 358.886719 Z M 330.484375 358.769531 C 330.476562 358.785156 330.46875 358.792969 330.460938 358.808594 C 330.46875 358.792969 330.476562 358.785156 330.484375 358.769531 Z M 330.5625 356.335938 C 330.5625 356.351562 330.570312 356.359375 330.578125 356.367188 C 330.570312 356.359375 330.5625 356.351562 330.5625 356.335938 Z M 291.328125 319.925781 C 291.3125 319.941406 291.296875 319.957031 291.273438 319.964844 Z M 218.851562 319.789062 C 218.867188 319.796875 218.875 319.804688 218.890625 319.820312 C 218.882812 319.804688 218.867188 319.796875 218.851562 319.789062 Z M 216.464844 319.695312 C 216.457031 319.703125 216.441406 319.703125 216.433594 319.710938 C 216.441406 319.703125 216.457031 319.703125 216.464844 319.695312 Z M 282.753906 316.191406 C 282.753906 316.207031 282.761719 316.222656 282.761719 316.238281 C 282.761719 316.222656 282.761719 316.207031 282.753906 316.191406 Z M 281.074219 314.414062 L 281.082031 314.414062 Z M 281.074219 314.414062 "/>
<path style=" stroke:none;fill-rule:nonzero;fill:url(#linear4);" d="M 255.171875 439.078125 C 230.914062 439.078125 211.179688 419.335938 211.179688 395.082031 C 211.179688 370.832031 230.914062 351.089844 255.171875 351.089844 C 279.433594 351.089844 299.167969 370.832031 299.167969 395.082031 C 299.167969 419.335938 279.433594 439.078125 255.171875 439.078125 Z M 255.171875 367.085938 C 239.734375 367.085938 227.175781 379.644531 227.175781 395.082031 C 227.175781 410.523438 239.734375 423.082031 255.171875 423.082031 C 270.609375 423.082031 283.167969 410.523438 283.167969 395.082031 C 283.167969 379.644531 270.609375 367.085938 255.171875 367.085938 Z M 255.171875 367.085938 "/>
</g>
</svg>
