<svg xmlns="http://www.w3.org/2000/svg"  viewBox="0 0 64 64" width="512px" height="512px"><linearGradient id="xF3OV34zyuF3vLhIGJ7Nta" x1="32" x2="32" y1="28" y2="34.835" gradientUnits="userSpaceOnUse" spreadMethod="reflect"><stop offset="0" stop-color="#6dc7ff"/><stop offset="1" stop-color="#e6abff"/></linearGradient><path fill="url(#xF3OV34zyuF3vLhIGJ7Nta)" d="M24 30H40V32H24z"/><linearGradient id="xF3OV34zyuF3vLhIGJ7Ntb" x1="32" x2="32" y1="10.167" y2="54.818" gradientUnits="userSpaceOnUse" spreadMethod="reflect"><stop offset="0" stop-color="#1a6dff"/><stop offset="1" stop-color="#c822ff"/></linearGradient><path fill="url(#xF3OV34zyuF3vLhIGJ7Ntb)" d="M57.471,19.705l-1.019-2.039c0,0-0.001-0.002-0.001-0.003l-2.004-4.007 C53.936,12.635,52.908,12,51.766,12H50c0-1.103-0.897-2-2-2H16c-1.103,0-2,0.897-2,2h-2v0.005c-1.054,0.063-1.991,0.684-2.477,1.654 l-1.988,4.005c-0.016,0.032-0.02,0.066-0.035,0.099l-0.971,1.943C6.183,20.399,6,21.175,6,21.947V49c0,2.757,2.243,5,5,5h42 c2.757,0,5-2.243,5-5V21.947C58,21.175,57.817,20.399,57.471,19.705z M51.766,14c0.38,0,0.722,0.211,0.892,0.551l1.449,2.896l0,0 l0.557,1.114c0.221,0.448,0.042,0.825-0.045,0.966C54.529,19.67,54.271,20,53.77,20H52v-4c0-1.103-0.897-2-2-2H51.766z M50,16v4H14 v-4H50z M48,12v2H16v-2H48z M11.313,14.551C11.485,14.206,11.809,14,12.176,14H14c-1.103,0-2,0.897-2,2v4h-1.77 c-0.508,0-0.771-0.336-0.86-0.48c-0.081-0.132-0.232-0.475-0.071-0.882l0.595-1.19l-0.016-0.008L11.313,14.551z M56,49 c0,1.654-1.346,3-3,3H11c-1.654,0-3-1.346-3-3V21.947c0-0.275,0.05-0.547,0.125-0.813C8.68,21.683,9.426,22,10.23,22H53.77 c0.805,0,1.55-0.32,2.104-0.87C55.949,21.397,56,21.67,56,21.947V49z"/><linearGradient id="xF3OV34zyuF3vLhIGJ7Ntc" x1="32" x2="32" y1="10.167" y2="54.818" gradientUnits="userSpaceOnUse" spreadMethod="reflect"><stop offset="0" stop-color="#1a6dff"/><stop offset="1" stop-color="#c822ff"/></linearGradient><path fill="url(#xF3OV34zyuF3vLhIGJ7Ntc)" d="M40,28H24c-1.103,0-2,0.897-2,2v2c0,1.103,0.897,2,2,2h16c1.103,0,2-0.897,2-2v-2 C42,28.897,41.103,28,40,28z M24,32v-2h16l0.002,2H24z"/><linearGradient id="xF3OV34zyuF3vLhIGJ7Ntd" x1="17" x2="17" y1="10.167" y2="54.818" gradientUnits="userSpaceOnUse" spreadMethod="reflect"><stop offset="0" stop-color="#1a6dff"/><stop offset="1" stop-color="#c822ff"/></linearGradient><path fill="url(#xF3OV34zyuF3vLhIGJ7Ntd)" d="M10 48H24V50H10z"/><linearGradient id="xF3OV34zyuF3vLhIGJ7Nte" x1="15" x2="15" y1="10.167" y2="54.818" gradientUnits="userSpaceOnUse" spreadMethod="reflect"><stop offset="0" stop-color="#1a6dff"/><stop offset="1" stop-color="#c822ff"/></linearGradient><path fill="url(#xF3OV34zyuF3vLhIGJ7Nte)" d="M10 44H20V46H10z"/><linearGradient id="xF3OV34zyuF3vLhIGJ7Ntf" x1="49" x2="49" y1="10.167" y2="54.818" gradientUnits="userSpaceOnUse" spreadMethod="reflect"><stop offset="0" stop-color="#1a6dff"/><stop offset="1" stop-color="#c822ff"/></linearGradient><path fill="url(#xF3OV34zyuF3vLhIGJ7Ntf)" d="M48 46H50V50H48z"/><linearGradient id="xF3OV34zyuF3vLhIGJ7Ntg" x1="53" x2="53" y1="10.167" y2="54.818" gradientUnits="userSpaceOnUse" spreadMethod="reflect"><stop offset="0" stop-color="#1a6dff"/><stop offset="1" stop-color="#c822ff"/></linearGradient><path fill="url(#xF3OV34zyuF3vLhIGJ7Ntg)" d="M52 46H54V50H52z"/><linearGradient id="xF3OV34zyuF3vLhIGJ7Nth" x1="41" x2="41" y1="10.167" y2="54.818" gradientUnits="userSpaceOnUse" spreadMethod="reflect"><stop offset="0" stop-color="#1a6dff"/><stop offset="1" stop-color="#c822ff"/></linearGradient><path fill="url(#xF3OV34zyuF3vLhIGJ7Nth)" d="M40 46H42V50H40z"/><linearGradient id="xF3OV34zyuF3vLhIGJ7Nti" x1="45" x2="45" y1="10.167" y2="54.818" gradientUnits="userSpaceOnUse" spreadMethod="reflect"><stop offset="0" stop-color="#1a6dff"/><stop offset="1" stop-color="#c822ff"/></linearGradient><path fill="url(#xF3OV34zyuF3vLhIGJ7Nti)" d="M44 46H46V50H44z"/></svg>