<?xml version="1.0" encoding="UTF-8"?>
<svg xmlns="http://www.w3.org/2000/svg" xmlns:xlink="http://www.w3.org/1999/xlink" viewBox="0 0 512 512" width="512px" height="512px">
<defs>
<linearGradient id="linear0" gradientUnits="userSpaceOnUse" x1="86" y1="75.25" x2="86" y2="93.619057" gradientTransform="matrix(2.976744,0,0,2.976744,0,0)">
<stop offset="0" style="stop-color:rgb(54.11765%,70.588237%,100%);stop-opacity:1;"/>
<stop offset="1" style="stop-color:rgb(89.411765%,57.254905%,100%);stop-opacity:1;"/>
</linearGradient>
<linearGradient id="linear1" gradientUnits="userSpaceOnUse" x1="86" y1="27.323811" x2="86" y2="147.32338" gradientTransform="matrix(2.976744,0,0,2.976744,0,0)">
<stop offset="0" style="stop-color:rgb(10.196079%,42.745098%,100%);stop-opacity:1;"/>
<stop offset="1" style="stop-color:rgb(78.431374%,13.333334%,100%);stop-opacity:1;"/>
</linearGradient>
<linearGradient id="linear2" gradientUnits="userSpaceOnUse" x1="86" y1="27.323811" x2="86" y2="147.32338" gradientTransform="matrix(2.976744,0,0,2.976744,0,0)">
<stop offset="0" style="stop-color:rgb(10.196079%,42.745098%,100%);stop-opacity:1;"/>
<stop offset="1" style="stop-color:rgb(78.431374%,13.333334%,100%);stop-opacity:1;"/>
</linearGradient>
<linearGradient id="linear3" gradientUnits="userSpaceOnUse" x1="45.6875" y1="27.323811" x2="45.6875" y2="147.32338" gradientTransform="matrix(2.976744,0,0,2.976744,0,0)">
<stop offset="0" style="stop-color:rgb(10.196079%,42.745098%,100%);stop-opacity:1;"/>
<stop offset="1" style="stop-color:rgb(78.431374%,13.333334%,100%);stop-opacity:1;"/>
</linearGradient>
<linearGradient id="linear4" gradientUnits="userSpaceOnUse" x1="40.3125" y1="27.323811" x2="40.3125" y2="147.32338" gradientTransform="matrix(2.976744,0,0,2.976744,0,0)">
<stop offset="0" style="stop-color:rgb(10.196079%,42.745098%,100%);stop-opacity:1;"/>
<stop offset="1" style="stop-color:rgb(78.431374%,13.333334%,100%);stop-opacity:1;"/>
</linearGradient>
<linearGradient id="linear5" gradientUnits="userSpaceOnUse" x1="136.723663" y1="102.234268" x2="136.723663" y2="171.101456" gradientTransform="matrix(2.976744,0,0,2.976744,0,0)">
<stop offset="0" style="stop-color:rgb(10.196079%,42.745098%,100%);stop-opacity:1;"/>
<stop offset="1" style="stop-color:rgb(78.431374%,13.333334%,100%);stop-opacity:1;"/>
</linearGradient>
<linearGradient id="linear6" gradientUnits="userSpaceOnUse" x1="136.723663" y1="101.78627" x2="136.723663" y2="171.66127" gradientTransform="matrix(2.976744,0,0,2.976744,0,0)">
<stop offset="0" style="stop-color:rgb(10.196079%,42.745098%,100%);stop-opacity:1;"/>
<stop offset="1" style="stop-color:rgb(78.431374%,13.333334%,100%);stop-opacity:1;"/>
</linearGradient>
</defs>
<g id="surface44292220">
<path style=" stroke:none;fill-rule:nonzero;fill:url(#linear0);" d="M 192 256 L 320 256 L 320 240 L 192 240 Z M 192 256 "/>
<path style=" stroke:none;fill-rule:nonzero;fill:url(#linear1);" d="M 464 175.574219 L 464 301.417969 C 458.878906 298.640625 453.535156 296.226562 448 294.207031 L 448 175.574219 C 448 173.359375 447.59375 171.175781 446.992188 169.039062 C 442.558594 173.441406 436.601562 176 430.160156 176 L 81.839844 176 C 75.40625 176 69.441406 173.464844 65 169.070312 C 64.398438 171.199219 64 173.375 64 175.574219 L 64 392 C 64 405.230469 74.769531 416 88 416 L 287.324219 416 C 287.730469 421.441406 288.503906 426.78125 289.613281 432 L 88 432 C 65.945312 432 48 414.054688 48 392 L 48 175.574219 C 48 169.398438 49.464844 163.191406 52.230469 157.648438 L 60 142.105469 C 60.121094 141.839844 60.152344 141.566406 60.28125 141.3125 L 76.183594 109.273438 C 80.070312 101.511719 87.566406 96.542969 96 96.039062 L 96 96 L 112 96 C 112 87.175781 119.175781 80 128 80 L 384 80 C 392.824219 80 400 87.175781 400 96 L 414.128906 96 C 423.265625 96 431.488281 101.078125 435.574219 109.246094 L 451.609375 141.304688 C 451.609375 141.3125 451.617188 141.328125 451.617188 141.328125 L 459.769531 157.640625 C 462.535156 163.191406 464 169.398438 464 175.574219 Z M 400 112 C 408.824219 112 416 119.175781 416 128 L 416 160 L 430.160156 160 C 434.167969 160 436.230469 157.359375 436.953125 156.214844 C 437.648438 155.089844 439.078125 152.070312 437.3125 148.488281 L 432.855469 139.574219 L 421.265625 116.40625 C 419.902344 113.6875 417.167969 112 414.128906 112 Z M 112 128 L 112 160 L 400 160 L 400 128 Z M 128 96 L 128 112 L 384 112 L 384 96 Z M 79.023438 139.519531 L 79.152344 139.585938 L 74.390625 149.105469 C 73.105469 152.359375 74.3125 155.105469 74.960938 156.160156 C 75.671875 157.3125 77.777344 160 81.839844 160 L 96 160 L 96 128 C 96 119.175781 103.175781 112 112 112 L 97.40625 112 C 94.472656 112 91.878906 113.648438 90.503906 116.40625 Z M 79.023438 139.519531 "/>
<path style=" stroke:none;fill-rule:nonzero;fill:url(#linear2);" d="M 320 224 L 192 224 C 183.175781 224 176 231.175781 176 240 L 176 256 C 176 264.824219 183.175781 272 192 272 L 320 272 C 328.824219 272 336 264.824219 336 256 L 336 240 C 336 231.175781 328.824219 224 320 224 Z M 192 256 L 192 240 L 320 240 L 320.015625 256 Z M 192 256 "/>
<path style=" stroke:none;fill-rule:nonzero;fill:url(#linear3);" d="M 80 400 L 192 400 L 192 384 L 80 384 Z M 80 400 "/>
<path style=" stroke:none;fill-rule:nonzero;fill:url(#linear4);" d="M 80 368 L 160 368 L 160 352 L 80 352 Z M 80 368 "/>
<path style=" stroke:none;fill-rule:nonzero;fill:url(#linear5);" d="M 446.992188 398.992188 L 414.992188 398.992188 L 414.992188 366.992188 C 414.992188 362.574219 411.40625 358.992188 406.992188 358.992188 C 402.574219 358.992188 398.992188 362.574219 398.992188 366.992188 L 398.992188 398.992188 L 366.992188 398.992188 C 362.574219 398.992188 358.992188 402.574219 358.992188 406.992188 C 358.992188 411.40625 362.574219 414.992188 366.992188 414.992188 L 398.992188 414.992188 L 398.992188 446.992188 C 398.992188 451.40625 402.574219 454.992188 406.992188 454.992188 C 411.40625 454.992188 414.992188 451.40625 414.992188 446.992188 L 414.992188 414.992188 L 446.992188 414.992188 C 451.40625 414.992188 454.992188 411.40625 454.992188 406.992188 C 454.992188 402.574219 451.40625 398.992188 446.992188 398.992188 Z M 446.992188 398.992188 "/>
<path style=" stroke:none;fill-rule:nonzero;fill:url(#linear6);" d="M 406.992188 510.992188 C 349.648438 510.992188 302.992188 464.335938 302.992188 406.992188 C 302.992188 349.648438 349.648438 302.992188 406.992188 302.992188 C 464.335938 302.992188 510.992188 349.648438 510.992188 406.992188 C 510.992188 464.335938 464.335938 510.992188 406.992188 510.992188 Z M 406.992188 318.992188 C 358.472656 318.992188 318.992188 358.472656 318.992188 406.992188 C 318.992188 455.511719 358.472656 494.992188 406.992188 494.992188 C 455.511719 494.992188 494.992188 455.511719 494.992188 406.992188 C 494.992188 358.472656 455.511719 318.992188 406.992188 318.992188 Z M 406.992188 318.992188 "/>
</g>
</svg>
