<?xml version="1.0" encoding="utf-8"?>
<!-- Generator: Adobe Illustrator 25.2.0, SVG Export Plug-In . SVG Version: 6.00 Build 0)  -->
<svg version="1.1" id="Layer_1" xmlns="http://www.w3.org/2000/svg" xmlns:xlink="http://www.w3.org/1999/xlink" x="0px" y="0px"
	 viewBox="0 0 512 512" style="enable-background:new 0 0 512 512;" xml:space="preserve">
<style type="text/css">
	.st0{fill:url(#SVGID_1_);}
	.st1{fill:url(#SVGID_2_);}
	.st2{fill:url(#SVGID_3_);}
	.st3{fill:url(#SVGID_4_);}
	.st4{fill:url(#SVGID_5_);}
	.st5{fill:url(#SVGID_6_);}
	.st6{fill:url(#SVGID_7_);}
	.st7{fill:url(#SVGID_8_);}
	.st8{fill:url(#SVGID_9_);}
	.st9{fill:url(#SVGID_10_);}
	.st10{fill:url(#SVGID_11_);}
	.st11{fill:url(#SVGID_12_);}
	.st12{fill:url(#SVGID_13_);}
	.st13{fill:url(#SVGID_14_);}
</style>
<g id="surface27937888">
	
		<linearGradient id="SVGID_1_" gradientUnits="userSpaceOnUse" x1="-380.8359" y1="686.1406" x2="-380.8359" y2="542.8834" gradientTransform="matrix(2.9767 0 0 -2.9767 1389.651 2089.4648)">
		<stop  offset="0" style="stop-color:#1A6DFF"/>
		<stop  offset="1" style="stop-color:#C822FF"/>
	</linearGradient>
	<path class="st0" d="M424,72v216.2c-5.2-0.7-10.6-1.2-16-1.2V72c0-4-4.6-8-9.4-8H112c-4.4,0-8,3.6-8,8v368c0,4.4,3.6,8,8,8h182.2
		c2,5.5,4.4,10.9,7.2,16H112c-13.2,0-24-10.8-24-24V72c0-13.2,10.8-24,24-24h286.6C412.4,48,424,59,424,72z"/>
	
		<linearGradient id="SVGID_2_" gradientUnits="userSpaceOnUse" x1="-370.0859" y1="686.1406" x2="-370.0859" y2="542.8834" gradientTransform="matrix(2.9767 0 0 -2.9767 1389.651 2089.4648)">
		<stop  offset="0" style="stop-color:#1A6DFF"/>
		<stop  offset="1" style="stop-color:#C822FF"/>
	</linearGradient>
	<path class="st1" d="M216,192h144c8.8,0,16-7.2,16-16v-16c0-8.8-7.2-16-16-16H216c-8.8,0-16,7.2-16,16v16
		C200,184.8,207.2,192,216,192z M216,160h144v16H216V160z"/>
	
		<linearGradient id="SVGID_3_" gradientUnits="userSpaceOnUse" x1="-413.0859" y1="686.1406" x2="-413.0859" y2="542.8834" gradientTransform="matrix(2.9767 0 0 -2.9767 1389.651 2089.4648)">
		<stop  offset="0" style="stop-color:#1A6DFF"/>
		<stop  offset="1" style="stop-color:#C822FF"/>
	</linearGradient>
	<path class="st2" d="M152,192h16c8.8,0,16-7.2,16-16v-16c0-8.8-7.2-16-16-16h-16c-8.8,0-16,7.2-16,16v16
		C136,184.8,143.2,192,152,192z M152,160h16v16h-16V160z"/>
	
		<linearGradient id="SVGID_4_" gradientUnits="userSpaceOnUse" x1="-370.0859" y1="686.1406" x2="-370.0859" y2="542.8834" gradientTransform="matrix(2.9767 0 0 -2.9767 1389.651 2089.4648)">
		<stop  offset="0" style="stop-color:#1A6DFF"/>
		<stop  offset="1" style="stop-color:#C822FF"/>
	</linearGradient>
	<path class="st3" d="M216,256h144c8.8,0,16-7.2,16-16v-16c0-8.8-7.2-16-16-16H216c-8.8,0-16,7.2-16,16v16
		C200,248.8,207.2,256,216,256z M216,224h144v16H216V224z"/>
	
		<linearGradient id="SVGID_5_" gradientUnits="userSpaceOnUse" x1="-413.0859" y1="686.1406" x2="-413.0859" y2="542.8834" gradientTransform="matrix(2.9767 0 0 -2.9767 1389.651 2089.4648)">
		<stop  offset="0" style="stop-color:#1A6DFF"/>
		<stop  offset="1" style="stop-color:#C822FF"/>
	</linearGradient>
	<path class="st4" d="M152,256h16c8.8,0,16-7.2,16-16v-16c0-8.8-7.2-16-16-16h-16c-8.8,0-16,7.2-16,16v16
		C136,248.8,143.2,256,152,256z M152,224h16v16h-16V224z"/>
	
		<linearGradient id="SVGID_6_" gradientUnits="userSpaceOnUse" x1="-370.0859" y1="686.1406" x2="-370.0859" y2="542.8834" gradientTransform="matrix(2.9767 0 0 -2.9767 1389.651 2089.4648)">
		<stop  offset="0" style="stop-color:#1A6DFF"/>
		<stop  offset="1" style="stop-color:#C822FF"/>
	</linearGradient>
	<path class="st5" d="M200,304v-16c0-8.8,7.2-16,16-16h144c8.8,0,16,7.2,16,16v3c-5.5,1.5-10.8,3.3-16,5.5V288H216v16h129.5
		c-7.6,4.6-14.7,9.9-21,16H216C207.2,320,200,312.8,200,304z"/>
	
		<linearGradient id="SVGID_7_" gradientUnits="userSpaceOnUse" x1="-413.0859" y1="686.1406" x2="-413.0859" y2="542.8834" gradientTransform="matrix(2.9767 0 0 -2.9767 1389.651 2089.4648)">
		<stop  offset="0" style="stop-color:#1A6DFF"/>
		<stop  offset="1" style="stop-color:#C822FF"/>
	</linearGradient>
	<path class="st6" d="M152,320h16c8.8,0,16-7.2,16-16v-16c0-8.8-7.2-16-16-16h-16c-8.8,0-16,7.2-16,16v16
		C136,312.8,143.2,320,152,320z M152,288h16v16h-16V288z"/>
	
		<linearGradient id="SVGID_8_" gradientUnits="userSpaceOnUse" x1="-405.0234" y1="686.1406" x2="-405.0234" y2="542.8834" gradientTransform="matrix(2.9767 0 0 -2.9767 1389.651 2089.4648)">
		<stop  offset="0" style="stop-color:#1A6DFF"/>
		<stop  offset="1" style="stop-color:#C822FF"/>
	</linearGradient>
	<path class="st7" d="M136,384h96v-16h-96V384z"/>
	
		<linearGradient id="SVGID_9_" gradientUnits="userSpaceOnUse" x1="-396.9609" y1="686.1406" x2="-396.9609" y2="542.8834" gradientTransform="matrix(2.9767 0 0 -2.9767 1389.651 2089.4648)">
		<stop  offset="0" style="stop-color:#1A6DFF"/>
		<stop  offset="1" style="stop-color:#C822FF"/>
	</linearGradient>
	<path class="st8" d="M136,416h144v-16H136V416z"/>
	
		<linearGradient id="SVGID_10_" gradientUnits="userSpaceOnUse" x1="-413.0885" y1="648.6231" x2="-413.0885" y2="641.9554" gradientTransform="matrix(2.9767 0 0 -2.9767 1389.651 2089.4648)">
		<stop  offset="0" style="stop-color:#8AB4FF"/>
		<stop  offset="1" style="stop-color:#E492FF"/>
	</linearGradient>
	<path class="st9" d="M152,176h16v-16h-16V176z"/>
	
		<linearGradient id="SVGID_11_" gradientUnits="userSpaceOnUse" x1="-413.0885" y1="627.1285" x2="-413.0885" y2="620.5764" gradientTransform="matrix(2.9767 0 0 -2.9767 1389.651 2089.4648)">
		<stop  offset="0" style="stop-color:#8AB4FF"/>
		<stop  offset="1" style="stop-color:#E492FF"/>
	</linearGradient>
	<path class="st10" d="M152,240h16v-16h-16V240z"/>
	
		<linearGradient id="SVGID_12_" gradientUnits="userSpaceOnUse" x1="-413.0885" y1="605.8516" x2="-413.0885" y2="598.856" gradientTransform="matrix(2.9767 0 0 -2.9767 1389.651 2089.4648)">
		<stop  offset="0" style="stop-color:#8AB4FF"/>
		<stop  offset="1" style="stop-color:#E492FF"/>
	</linearGradient>
	<path class="st11" d="M152,304h16v-16h-16V304z"/>
	
		<linearGradient id="SVGID_13_" gradientUnits="userSpaceOnUse" x1="-330.112" y1="599.6954" x2="-330.112" y2="530.8282" gradientTransform="matrix(2.9767 0 0 -2.9767 1389.651 2089.4648)">
		<stop  offset="0" style="stop-color:#00A651"/>
		<stop  offset="1" style="stop-color:#B9C647"/>
	</linearGradient>
	<path class="st12" d="M447,399h-32v-32c0-4.4-3.6-8-8-8c-4.4,0-8,3.6-8,8v32h-32c-4.4,0-8,3.6-8,8c0,4.4,3.6,8,8,8h32v32
		c0,4.4,3.6,8,8,8c4.4,0,8-3.6,8-8v-32h32c4.4,0,8-3.6,8-8C455,402.6,451.4,399,447,399z"/>
	
		<linearGradient id="SVGID_14_" gradientUnits="userSpaceOnUse" x1="-330.112" y1="600.1432" x2="-330.112" y2="530.2682" gradientTransform="matrix(2.9767 0 0 -2.9767 1389.651 2089.4648)">
		<stop  offset="0" style="stop-color:#00A651"/>
		<stop  offset="1" style="stop-color:#B9C647"/>
	</linearGradient>
	<path class="st13" d="M407,511c-57.3,0-104-46.7-104-104s46.7-104,104-104s104,46.7,104,104S464.3,511,407,511z M407,319
		c-48.5,0-88,39.5-88,88s39.5,88,88,88s88-39.5,88-88S455.5,319,407,319z"/>
</g>
</svg>
