<?xml version="1.0" encoding="utf-8"?>
<!-- Generator: Adobe Illustrator 25.2.0, SVG Export Plug-In . SVG Version: 6.00 Build 0)  -->
<svg version="1.1" id="Layer_1" xmlns="http://www.w3.org/2000/svg" xmlns:xlink="http://www.w3.org/1999/xlink" x="0px" y="0px"
	 viewBox="0 0 512 512" style="enable-background:new 0 0 512 512;" xml:space="preserve">
<style type="text/css">
	.st0{fill:url(#SVGID_1_);}
	.st1{fill:url(#SVGID_2_);}
</style>
<linearGradient id="SVGID_1_" gradientUnits="userSpaceOnUse" x1="-380.8359" y1="623.0972" x2="-380.8359" y2="607.4184" gradientTransform="matrix(2.9767 0 0 -2.9767 1389.651 2089.4648)">
	<stop  offset="0" style="stop-color:#FF1A1A"/>
	<stop  offset="1" style="stop-color:#FF9122"/>
</linearGradient>
<path class="st0" d="M336,264c0,4.4-3.6,8-8,8H184c-4.4,0-8-3.6-8-8v-16c0-4.4,3.6-8,8-8h144c4.4,0,8,3.6,8,8V264z"/>
<linearGradient id="SVGID_2_" gradientUnits="userSpaceOnUse" x1="256" y1="46.664" x2="256" y2="472.304">
	<stop  offset="0" style="stop-color:#FF1A1A"/>
	<stop  offset="1" style="stop-color:#FF9122"/>
</linearGradient>
<path class="st1" d="M256,48C141.3,48,48,141.3,48,256s93.3,208,208,208s208-93.3,208-208S370.7,48,256,48z M256,400
	c-79.5,0-144-64.5-144-144s64.5-144,144-144s144,64.5,144,144S335.5,400,256,400z"/>
</svg>
