<?xml version="1.0" encoding="utf-8"?>
<!-- Generator: Adobe Illustrator 25.2.0, SVG Export Plug-In . SVG Version: 6.00 Build 0)  -->
<svg version="1.1" id="Layer_1" xmlns="http://www.w3.org/2000/svg" xmlns:xlink="http://www.w3.org/1999/xlink" x="0px" y="0px"
	 viewBox="0 0 512 512" style="enable-background:new 0 0 512 512;" xml:space="preserve">
<style type="text/css">
	.st0{fill:url(#SVGID_1_);}
	.st1{fill:url(#SVGID_2_);}
	.st2{fill:url(#SVGID_3_);}
	.st3{fill:url(#SVGID_4_);}
</style>
<linearGradient id="SVGID_1_" gradientUnits="userSpaceOnUse" x1="-583.125" y1="721.593" x2="-583.125" y2="716.229" gradientTransform="matrix(8 0 0 -8 4921 6093)">
	<stop  offset="0" style="stop-color:#6DC7FF"/>
	<stop  offset="1" style="stop-color:#E6ABFF"/>
</linearGradient>
<circle class="st0" cx="256" cy="344" r="24"/>
<linearGradient id="SVGID_2_" gradientUnits="userSpaceOnUse" x1="-585.8304" y1="751.05" x2="-585.8304" y2="710.452" gradientTransform="matrix(8 0 0 -8 4921 6093)">
	<stop  offset="0" style="stop-color:#1A6DFF"/>
	<stop  offset="1" style="stop-color:#C822FF"/>
</linearGradient>
<path class="st1" d="M256,408c-32.6,0-59.5-24.5-63.4-56h6.9c4.7,0,8.9-2.6,10.9-6.8s1.6-9.1-1.2-12.8l-15.9-21.2
	c-4.4-5.9-14.4-5.9-18.8,0l-15.9,21.2c-2.8,3.7-3.2,8.6-1.2,12.8c2.1,4.2,6.3,6.8,11,6.8h8.1c4,40.3,38,72,79.4,72
	c22.1,0,42-9,56.5-23.5l-11.3-11.3C289.6,400.8,273.6,408,256,408z M184,325.3l8,10.7h-16L184,325.3z"/>
<linearGradient id="SVGID_3_" gradientUnits="userSpaceOnUse" x1="-580.6291" y1="751.05" x2="-580.6291" y2="710.452" gradientTransform="matrix(8 0 0 -8 4921 6093)">
	<stop  offset="0" style="stop-color:#1A6DFF"/>
	<stop  offset="1" style="stop-color:#C822FF"/>
</linearGradient>
<path class="st2" d="M343.5,336h-8.1c-4-40.3-38-72-79.4-72c-23.8,0-45.2,10.5-59.8,27.1l11.3,11.3c11.8-13.7,29.1-22.4,48.6-22.4
	c32.6,0,59.5,24.5,63.4,56h-7c-4.7,0-8.9,2.6-10.9,6.8s-1.6,9.1,1.2,12.8l15.9,21.2c2.2,3,5.7,4.7,9.4,4.7s7.2-1.8,9.4-4.7
	l15.9-21.2c2.8-3.7,3.2-8.6,1.2-12.8C352.4,338.6,348.2,336,343.5,336z M328,362.7l-8-10.7h16L328,362.7z"/>
<linearGradient id="SVGID_4_" gradientUnits="userSpaceOnUse" x1="256" y1="347.4" x2="256" y2="22.616">
	<stop  offset="0" style="stop-color:#1A6DFF"/>
	<stop  offset="1" style="stop-color:#C822FF"/>
</linearGradient>
<path class="st3" d="M409.6,210.4c4.2-10.9,6.4-22.4,6.4-34.4c0-52.9-43.1-96-96-96c-41.3,0-77.3,26.3-90.5,64.2
	c-0.5-0.4-1-0.7-1.5-1.1c-12.5-9.6-28.1-15.1-43.9-15.1c-39.7,0-72,32.3-72,72v24c-35.3,0-64,28.7-64,64c0,35.3,28.7,64,64,64h26.3
	c-0.2-2.6-0.3-5.3-0.3-8c0-65.2,52.8-118,118-118s118,52.8,118,118c0,2.7-0.1,5.4-0.3,8H392c39.7,0,72-32.3,72-72
	C464,246.7,440.8,218.3,409.6,210.4z M184,176c-13.2,0-24,10.8-24,24h-16c0-22.1,17.9-40,40-40V176z M336,176c0-8.8-7.2-16-16-16
	v-16c17.6,0,32,14.4,32,32H336z M368,176c0-26.5-21.5-48-48-48v-16c35.3,0,64,28.7,64,64H368z"/>
</svg>
