<svg xmlns="http://www.w3.org/2000/svg"  viewBox="0 0 64 64" width="512px" height="512px"><linearGradient id="nOJMhOmfEGoW8zbOacZxya" x1="32" x2="32" y1="5.875" y2="59.18" gradientUnits="userSpaceOnUse" spreadMethod="reflect"><stop offset="0" stop-color="#1a6dff"/><stop offset="1" stop-color="#c822ff"/></linearGradient><path fill="url(#nOJMhOmfEGoW8zbOacZxya)" d="M49.828,6H13.999C12.346,6,11,7.346,11,9v46c0,1.654,1.346,3,2.999,3h27 c0.804,0,1.613-0.328,2.163-0.877l8.873-8.83C52.657,47.671,53,46.918,53,46.172V9C53,7.374,51.548,6,49.828,6z M13.999,56 C13.448,56,13,55.552,13,55V9c0-0.552,0.448-1,0.999-1h35.829C50.42,8,51,8.495,51,9v37h-7.172C42.216,46,41,47.29,41,49v7h-0.001 H13.999z M43,54.463V49c0-0.498,0.256-1,0.828-1h5.667L43,54.463z"/><linearGradient id="nOJMhOmfEGoW8zbOacZxyb" x1="36" x2="36" y1="5.875" y2="59.18" gradientUnits="userSpaceOnUse" spreadMethod="reflect"><stop offset="0" stop-color="#1a6dff"/><stop offset="1" stop-color="#c822ff"/></linearGradient><path fill="url(#nOJMhOmfEGoW8zbOacZxyb)" d="M27,24h18c1.103,0,2-0.897,2-2v-2c0-1.103-0.897-2-2-2H27c-1.103,0-2,0.897-2,2v2 C25,23.103,25.897,24,27,24z M27,20h18v2H27V20z"/><linearGradient id="nOJMhOmfEGoW8zbOacZxyc" x1="20" x2="20" y1="5.875" y2="59.18" gradientUnits="userSpaceOnUse" spreadMethod="reflect"><stop offset="0" stop-color="#1a6dff"/><stop offset="1" stop-color="#c822ff"/></linearGradient><path fill="url(#nOJMhOmfEGoW8zbOacZxyc)" d="M19,24h2c1.103,0,2-0.897,2-2v-2c0-1.103-0.897-2-2-2h-2c-1.103,0-2,0.897-2,2v2 C17,23.103,17.897,24,19,24z M19,20h2v2h-2V20z"/><linearGradient id="nOJMhOmfEGoW8zbOacZxyd" x1="36" x2="36" y1="5.875" y2="59.18" gradientUnits="userSpaceOnUse" spreadMethod="reflect"><stop offset="0" stop-color="#1a6dff"/><stop offset="1" stop-color="#c822ff"/></linearGradient><path fill="url(#nOJMhOmfEGoW8zbOacZxyd)" d="M27,32h18c1.103,0,2-0.897,2-2v-2c0-1.103-0.897-2-2-2H27c-1.103,0-2,0.897-2,2v2 C25,31.103,25.897,32,27,32z M27,28h18v2H27V28z"/><linearGradient id="nOJMhOmfEGoW8zbOacZxye" x1="20" x2="20" y1="5.875" y2="59.18" gradientUnits="userSpaceOnUse" spreadMethod="reflect"><stop offset="0" stop-color="#1a6dff"/><stop offset="1" stop-color="#c822ff"/></linearGradient><path fill="url(#nOJMhOmfEGoW8zbOacZxye)" d="M19,32h2c1.103,0,2-0.897,2-2v-2c0-1.103-0.897-2-2-2h-2c-1.103,0-2,0.897-2,2v2 C17,31.103,17.897,32,19,32z M19,28h2v2h-2V28z"/><linearGradient id="nOJMhOmfEGoW8zbOacZxyf" x1="36" x2="36" y1="5.875" y2="59.18" gradientUnits="userSpaceOnUse" spreadMethod="reflect"><stop offset="0" stop-color="#1a6dff"/><stop offset="1" stop-color="#c822ff"/></linearGradient><path fill="url(#nOJMhOmfEGoW8zbOacZxyf)" d="M27,40h18c1.103,0,2-0.897,2-2v-2c0-1.103-0.897-2-2-2H27c-1.103,0-2,0.897-2,2v2 C25,39.103,25.897,40,27,40z M27,36h18v2H27V36z"/><linearGradient id="nOJMhOmfEGoW8zbOacZxyg" x1="20" x2="20" y1="5.875" y2="59.18" gradientUnits="userSpaceOnUse" spreadMethod="reflect"><stop offset="0" stop-color="#1a6dff"/><stop offset="1" stop-color="#c822ff"/></linearGradient><path fill="url(#nOJMhOmfEGoW8zbOacZxyg)" d="M19,40h2c1.103,0,2-0.897,2-2v-2c0-1.103-0.897-2-2-2h-2c-1.103,0-2,0.897-2,2v2 C17,39.103,17.897,40,19,40z M19,36h2v2h-2V36z"/><linearGradient id="nOJMhOmfEGoW8zbOacZxyh" x1="23" x2="23" y1="5.875" y2="59.18" gradientUnits="userSpaceOnUse" spreadMethod="reflect"><stop offset="0" stop-color="#1a6dff"/><stop offset="1" stop-color="#c822ff"/></linearGradient><path fill="url(#nOJMhOmfEGoW8zbOacZxyh)" d="M17 46H29V48H17z"/><linearGradient id="nOJMhOmfEGoW8zbOacZxyi" x1="26" x2="26" y1="5.875" y2="59.18" gradientUnits="userSpaceOnUse" spreadMethod="reflect"><stop offset="0" stop-color="#1a6dff"/><stop offset="1" stop-color="#c822ff"/></linearGradient><path fill="url(#nOJMhOmfEGoW8zbOacZxyi)" d="M17 50H35V52H17z"/><linearGradient id="nOJMhOmfEGoW8zbOacZxyj" x1="19.999" x2="19.999" y1="19.835" y2="22.316" gradientUnits="userSpaceOnUse" spreadMethod="reflect"><stop offset="0" stop-color="#6dc7ff"/><stop offset="1" stop-color="#e6abff"/></linearGradient><path fill="url(#nOJMhOmfEGoW8zbOacZxyj)" d="M18.999 20H20.999V22H18.999z"/><linearGradient id="nOJMhOmfEGoW8zbOacZxyk" x1="19.999" x2="19.999" y1="27.833" y2="30.271" gradientUnits="userSpaceOnUse" spreadMethod="reflect"><stop offset="0" stop-color="#6dc7ff"/><stop offset="1" stop-color="#e6abff"/></linearGradient><path fill="url(#nOJMhOmfEGoW8zbOacZxyk)" d="M18.999 28H20.999V30H18.999z"/><linearGradient id="nOJMhOmfEGoW8zbOacZxyl" x1="19.999" x2="19.999" y1="35.75" y2="38.353" gradientUnits="userSpaceOnUse" spreadMethod="reflect"><stop offset="0" stop-color="#6dc7ff"/><stop offset="1" stop-color="#e6abff"/></linearGradient><path fill="url(#nOJMhOmfEGoW8zbOacZxyl)" d="M18.999 36H20.999V38H18.999z"/></svg>